<svg width="634.98" height="494.46" version="1.1" viewBox="0 0 168.01 130.83" xml:space="preserve" xmlns="http://www.w3.org/2000/svg"><g transform="translate(1.6 1.6005)" fill="none" stroke-width="4.2"><path transform="translate(58.585 -3.9202)" d="m105.72 67.733c0-4.5847-0.069-9.1692-0.215-13.646-0.146-4.477-0.369-8.8458-0.688-13.005-0.32-4.159-0.737-8.1067-1.285-11.752-0.549-3.6454-1.229-6.9863-2.087-9.9467-0.857-2.9604-1.8927-5.5376-3.1564-7.6739-1.2637-2.1362-2.7577-3.8286-4.526-5.0402-1.7683-1.2117-3.8138-1.9396-6.158-2.1698-2.3443-0.23012-4.9905 0.04056-7.9173 0.80278-2.9268 0.76221-6.1369 2.0188-9.5473 3.7376s-7.0222 3.9022-10.683 6.4966c-3.661 2.5945-7.3699 5.6021-10.918 8.9503-3.5475 3.3482-6.9295 7.0387-9.9159 10.983s-5.571 8.1444-7.5564 12.5-3.365 8.8672-4.0282 13.429-0.6047 9.1733 0.1665 13.727c0.7712 4.5535 2.2578 9.0481 4.3332 13.379 2.0754 4.3312 4.7397 8.4975 7.7853 12.403 3.0455 3.905 6.4707 7.547 10.042 10.843s7.2869 6.243 10.94 8.774 7.2425 4.645 10.622 6.292c3.3799 1.648 6.5493 2.828 9.4336 3.515 2.8842 0.687 5.4827 0.879 7.7816 0.573 2.299-0.306 4.2981-1.113 6.0248-2.398 1.7266-1.285 3.1805-3.051 4.4096-5.254s2.233-4.846 3.063-7.864c0.831-3.018 1.487-6.413 2.016-10.104 0.528-3.691 0.928-7.6796 1.232-11.87 0.305-4.1904 0.514-8.584 0.648-13.077 0.134-4.4929 0.193-9.0853 0.182-13.669" stroke="#fff100" title="250 + 150 * cos(t + asin(-0.5) * sin(t)) 256 + 240 * sin(t)"/><path d="m150.75 63.813c0-3.4641-0.055-6.9289-0.1708-10.313-0.1158-3.3837-0.2924-6.6861-0.5442-9.8301-0.2521-3.145-0.5798-6.1305-1.0089-8.8873-0.4286-2.7587-0.9583-5.2869-1.6246-7.5269-0.6636-2.2423-1.464-4.1938-2.4388-5.8108-0.9729-1.6184-2.1217-2.8997-3.4797-3.816-1.3579-0.9164-2.9272-1.4655-4.7244-1.6365-1.7998-0.17-3.83 0.0397-6.0743 0.622-1.039 0.2695-2.1243 0.6189-3.2495 1.0458-1.3096 0.4964-2.6729 1.0974-4.08 1.7993-2.6211 1.3049-5.3946 2.9596-8.2042 4.9237-2.8115 1.9631-5.6578 4.2365-8.3789 6.7658-2.7207 2.5297-5.3131 5.3167-7.6016 8.2945-2.2875 2.9797-4.2666 6.1514-5.7866 9.4399-1.5193 3.2913-2.5749 6.7001-3.0825 10.146-0.2537 1.7238-0.3694 3.4568-0.348 5.1888 0.0215 1.7321 0.18 3.4635 0.4748 5.184 0.5898 3.4394 1.727 6.835 3.3149 10.108 1.5887 3.27 3.6285 6.4162 5.9611 9.3662 2.3335 2.9476 4.959 5.6977 7.6979 8.1876 2.7391 2.49 5.5902 4.717 8.3956 6.632 2.8033 1.916 5.5593 3.518 8.1567 4.768 1.468 0.709 2.8848 1.304 4.2401 1.782 1.0387 0.367 2.041 0.665 3.0023 0.893 2.2116 0.525 4.2051 0.675 5.9701 0.447 1.7627-0.229 3.2966-0.839 4.6228-1.811 1.3265-0.972 2.4449-2.31 3.3916-3.979 0.9488-1.668 1.7254-3.669 2.3687-5.955 0.646-2.284 1.1576-4.8531 1.5713-7.6464 0.4139-2.7915 0.7288-5.808 0.9688-8.9768 0.2411-3.1679 0.4072-6.489 0.5139-9.8846 0.1067-3.3961 0.154-6.8668 0.1456-10.33" stroke="#ff9000"/><path d="m142.12 63.813c0-2.6337-0.0446-5.2686-0.138-7.8425-0.0934-2.5734-0.2358-5.0855-0.4376-7.4773-0.2018-2.3937-0.4634-4.666-0.8043-6.7644-0.3395-2.1016-0.7578-4.0275-1.2821-5.7336-0.5202-1.71-1.1462-3.1979-1.9068-4.4301-0.7574-1.2346-1.6503-2.2113-2.7044-2.9087-1.0537-0.6976-2.2701-1.114-3.6619-1.2412-1.3963-0.1256-2.97 0.039-4.7085 0.488-0.806 0.2079-1.6477 0.4767-2.5201 0.8046-1.0167 0.3812-2.0745 0.8418-3.1658 1.379-2.0361 0.9983-4.1883 2.2611-6.3668 3.7581-2.182 1.4951-4.389 3.2244-6.4976 5.1468-2.1079 1.9231-4.1153 4.0405-5.8865 6.3018-1.7695 2.2646-3.2999 4.6744-4.475 7.1722-1.1738 2.5026-1.9894 5.0941-2.3816 7.7131-0.1959 1.3108-0.2854 2.6286-0.2689 3.9455 0.0164 1.3168 0.1388 2.6333 0.3663 3.9417 0.4554 2.6138 1.3337 5.1949 2.5602 7.6829 1.2279 2.4836 2.805 4.8739 4.6092 7.1156 1.8059 2.2382 3.8386 4.3273 5.9606 6.2199 2.1223 1.8923 4.3328 3.5866 6.5098 5.0448 2.1734 1.4601 4.3118 2.6825 6.3294 3.6385 1.1383 0.542 2.2375 0.998 3.2898 1.366 0.8054 0.281 1.5828 0.511 2.3287 0.687 1.713 0.405 3.2583 0.523 4.6276 0.352 1.3652-0.171 2.5544-0.634 3.5837-1.375 1.03-0.741 1.8997-1.761 2.6372-3.0344 0.741-1.2711 1.3492-2.7971 1.8542-4.5403 0.5089-1.7397 0.9135-3.6969 1.2416-5.8249 0.3294-2.1249 0.5813-4.421 0.7739-6.8326 0.1937-2.4101 0.328-4.9365 0.4145-7.5189 0.0863-2.5832 0.125-5.2227 0.1186-7.8561" stroke="#e53b1a"/><path d="m134.66 63.813c0-1.8861-0.0353-3.774-0.1085-5.6187-0.0733-1.8441-0.1848-3.6447-0.3417-5.3595-0.1565-1.7172-0.3586-3.3476-0.6201-4.8533-0.2592-1.5101-0.5773-2.8938-0.9736-4.1193-0.3912-1.2309-0.8603-2.3013-1.4281-3.1871-0.5634-0.8892-1.2261-1.5917-2.0064-2.092-0.7799-0.5007-1.6787-0.7977-2.7055-0.8855-1.0331-0.0855-2.1959 0.0385-3.4791 0.3675-0.5963 0.1525-1.2187 0.3487-1.8636 0.5874-0.753 0.2775-1.5358 0.6117-2.3427 1.0007-1.5096 0.7222-3.1025 1.6323-4.7129 2.7088-1.6153 1.0739-3.2467 2.3134-4.8041 3.6895-1.5563 1.377-3.0369 2.8917-4.3425 4.508-1.3032 1.6209-2.4297 3.3448-3.2944 5.1309-0.8628 1.7926-1.4623 3.6483-1.7506 5.5229-0.144 0.9392-0.2098 1.8832-0.1978 2.8263 0.012 0.943 0.1017 1.8861 0.2687 2.8235 0.3344 1.8705 0.9795 3.7184 1.8809 5.5002 0.9031 1.7757 2.0636 3.4855 3.3921 5.0898 1.331 1.5995 2.8301 3.0935 4.3968 4.4484 1.5671 1.3545 3.2009 2.5687 4.8123 3.6159 1.6063 1.0499 3.1888 1.9306 4.6844 2.6221 0.8416 0.3924 1.6549 0.7232 2.4343 0.9906 0.5955 0.2052 1.1705 0.3728 1.7224 0.5019 1.2643 0.2966 2.406 0.3864 3.4191 0.2679 1.0074-0.1204 1.8863-0.4516 2.6484-0.984 0.763-0.5318 1.409-1.2658 1.9581-2.1836 0.554-0.9139 1.0105-2.0119 1.391-3.2667 0.3854-1.2498 0.6937-2.6562 0.9449-4.1853 0.2533-1.5249 0.4484-3.1724 0.5983-4.9025 0.1512-1.7279 0.2567-3.5388 0.325-5.3893 0.0681-1.8514 0.0991-3.7427 0.0944-5.6286" stroke="#b07"/><path d="m127.6 63.813c0-1.1878-0.0265-2.3778-0.0808-3.5413-0.0546-1.1627-0.1371-2.2987-0.2522-3.381-0.1141-1.0853-0.2606-2.1161-0.4479-3.068-0.1843-0.9575-0.4087-1.8348-0.6856-2.6114-0.2706-0.7832-0.5931-1.4638-0.9808-2.026-0.3822-0.5664-0.8297-1.0128-1.3544-1.329-0.5241-0.3166-1.1261-0.5022-1.812-0.5531-0.6938-0.0481-1.4727 0.0379-2.3305 0.2548-0.4004 0.1007-0.818 0.2292-1.2503 0.3846-0.5068 0.1805-1.0326 0.3967-1.5739 0.6473-1.0177 0.4643-2.0881 1.0449-3.1679 1.7285-1.0858 0.6804-2.1797 1.4624-3.222 2.3281-1.041 0.8669-2.0296 1.8185-2.9003 2.8324-0.8675 1.0195-1.6167 2.1027-2.1914 3.2238-0.5723 1.1294-0.9698 2.2978-1.1612 3.477-0.0954 0.592-0.1391 1.1868-0.1313 1.7808 8e-3 0.5939 0.0671 1.188 0.1775 1.7788 0.2213 1.1762 0.6487 2.3392 1.2463 3.4613 0.5997 1.1144 1.3711 2.1884 2.2552 3.1972 0.8873 1.0029 1.888 1.9411 2.9359 2.7937 1.0484 0.852 2.1435 1.6179 3.2264 2.2811 1.0767 0.6665 2.1398 1.228 3.1479 1.6723 0.5643 0.2526 1.1106 0.4664 1.635 0.6405 0.3994 0.1335 0.7853 0.2433 1.1561 0.3286 0.845 0.1956 1.6098 0.259 2.2901 0.189 0.6731-0.0724 1.2622-0.2805 1.7746-0.6181 0.5137-0.3369 0.9506-0.8038 1.3237-1.389 0.3793-0.5804 0.6942-1.2785 0.9584-2.077 0.2701-0.7923 0.4884-1.6841 0.6676-2.6537 0.1823-0.9643 0.3244-2.006 0.4344-3.0994 0.1113-1.0907 0.1902-2.2332 0.2414-3.3999 0.0511-1.1679 0.0748-2.3601 0.0718-3.5478" stroke="#7c0097"/><path d="m110.69 63.908c0 6.7623 10.777 10.428 10.745 0 7.7e-4 -11.846-10.745-6.3775-10.745 0z" stroke="#001276"/><g transform="translate(-26.082 -3.9202)"><path d="m26.582 67.733c0 4.5847 0.069 9.1692 0.215 13.646 0.146 4.477 0.369 8.8458 0.688 13.005 0.32 4.159 0.737 8.1067 1.285 11.752 0.549 3.6454 1.229 6.9863 2.087 9.9467 0.857 2.9604 1.8927 5.5376 3.1564 7.6739 1.2637 2.1362 2.7577 3.8286 4.526 5.0402 1.7683 1.2117 3.8138 1.9396 6.158 2.1698 2.3443 0.23012 4.9905-0.0406 7.9173-0.80278 2.9268-0.76221 6.1369-2.0188 9.5473-3.7376s7.0222-3.9022 10.683-6.4966c3.661-2.5945 7.3699-5.6021 10.918-8.9503 3.5475-3.3482 6.9295-7.0387 9.9159-10.983 2.9864-3.9446 5.571-8.1444 7.5564-12.5 1.9854-4.3555 3.365-8.8672 4.0282-13.429s0.6047-9.1733-0.1665-13.727c-0.7712-4.5535-2.2578-9.0481-4.3332-13.379-2.0754-4.3312-4.7397-8.4975-7.7853-12.403-3.0455-3.905-6.4707-7.547-10.042-10.843s-7.2869-6.243-10.94-8.774-7.2425-4.645-10.622-6.292c-3.3799-1.648-6.5493-2.828-9.4336-3.515-2.8842-0.687-5.4827-0.879-7.7816-0.573-2.299 0.306-4.2981 1.113-6.0248 2.398-1.7266 1.285-3.1805 3.051-4.4096 5.254s-2.233 4.846-3.063 7.864c-0.831 3.018-1.487 6.413-2.016 10.104-0.528 3.691-0.928 7.6796-1.232 11.87-0.305 4.1904-0.514 8.584-0.648 13.077-0.134 4.4929-0.193 9.0853-0.182 13.669" stroke="#fff100" title="250 + 150 * cos(t + asin(-0.5) * sin(t)) 256 + 240 * sin(t)"/><path d="m40.137 67.733c0 3.4641 0.055 6.9289 0.1708 10.313 0.1158 3.3837 0.2924 6.6861 0.5442 9.8301 0.2521 3.145 0.5798 6.1305 1.0089 8.8873 0.4286 2.7587 0.9583 5.2869 1.6246 7.5269 0.6636 2.2423 1.464 4.1938 2.4388 5.8108 0.9729 1.6184 2.1217 2.8997 3.4797 3.816 1.3579 0.9164 2.9272 1.4655 4.7244 1.6365 1.7998 0.17 3.83-0.0397 6.0743-0.622 1.039-0.2695 2.1243-0.6189 3.2495-1.0458 1.3096-0.4964 2.6729-1.0974 4.08-1.7993 2.6211-1.3049 5.3946-2.9596 8.2042-4.9237 2.8115-1.9631 5.6578-4.2365 8.3789-6.7658 2.7207-2.5297 5.3131-5.3167 7.6016-8.2945 2.2875-2.9797 4.2666-6.1514 5.7866-9.4399 1.5193-3.2913 2.5749-6.7001 3.0825-10.146 0.2537-1.7238 0.3694-3.4568 0.348-5.1888-0.0215-1.7321-0.18-3.4635-0.4748-5.184-0.5898-3.4394-1.727-6.835-3.3149-10.108-1.5887-3.27-3.6285-6.4162-5.9611-9.3662-2.3335-2.9476-4.959-5.6977-7.6979-8.1876-2.7391-2.49-5.5902-4.717-8.3956-6.632-2.8033-1.916-5.5593-3.518-8.1567-4.768-1.468-0.709-2.8848-1.304-4.2401-1.782-1.0387-0.367-2.041-0.665-3.0023-0.893-2.2116-0.525-4.2051-0.675-5.9701-0.447-1.7627 0.229-3.2966 0.839-4.6228 1.811-1.3265 0.972-2.4449 2.31-3.3916 3.979-0.9488 1.668-1.7254 3.669-2.3687 5.955-0.646 2.284-1.1576 4.8531-1.5713 7.6464-0.4139 2.7915-0.7288 5.808-0.9688 8.9768-0.2411 3.1679-0.4072 6.489-0.5139 9.8846-0.1067 3.3961-0.154 6.8668-0.1456 10.33" stroke="#ff9000"/><path d="m48.77 67.733c0 2.6337 0.0446 5.2686 0.138 7.8425 0.0934 2.5734 0.2358 5.0855 0.4376 7.4773 0.2018 2.3937 0.4634 4.666 0.8043 6.7644 0.3395 2.1016 0.7578 4.0275 1.2821 5.7336 0.5202 1.71 1.1462 3.1979 1.9068 4.4301 0.7574 1.2346 1.6503 2.2113 2.7044 2.9087 1.0537 0.6976 2.2701 1.114 3.6619 1.2412 1.3963 0.1256 2.97-0.039 4.7085-0.488 0.806-0.2079 1.6477-0.4767 2.5201-0.8046 1.0167-0.3812 2.0745-0.8418 3.1658-1.379 2.0361-0.9983 4.1883-2.2611 6.3668-3.7581 2.182-1.4951 4.389-3.2244 6.4976-5.1468 2.1079-1.9231 4.1153-4.0405 5.8865-6.3018 1.7695-2.2646 3.2999-4.6744 4.475-7.1722 1.1738-2.5026 1.9894-5.0941 2.3816-7.7131 0.1959-1.3108 0.2854-2.6286 0.2689-3.9455-0.0164-1.3168-0.1388-2.6333-0.3663-3.9417-0.4554-2.6138-1.3337-5.1949-2.5602-7.6829-1.2279-2.4836-2.805-4.8739-4.6092-7.1156-1.8059-2.2382-3.8386-4.3273-5.9606-6.2199-2.1223-1.8923-4.3328-3.5866-6.5098-5.0448-2.1734-1.4601-4.3118-2.6825-6.3294-3.6385-1.1383-0.542-2.2375-0.998-3.2898-1.366-0.8054-0.281-1.5828-0.511-2.3287-0.687-1.713-0.405-3.2583-0.523-4.6276-0.352-1.3652 0.171-2.5544 0.634-3.5837 1.375-1.03 0.741-1.8997 1.761-2.6372 3.0344-0.741 1.2711-1.3492 2.7971-1.8542 4.5403-0.5089 1.7397-0.9135 3.6969-1.2416 5.8249-0.3294 2.1249-0.5813 4.421-0.7739 6.8326-0.1937 2.4101-0.328 4.9365-0.4145 7.5189-0.0863 2.5832-0.125 5.2227-0.1186 7.8561" stroke="#e53b1a"/><path d="m56.223 67.733c0 1.8861 0.0353 3.774 0.1085 5.6187 0.0733 1.8441 0.1848 3.6447 0.3417 5.3595 0.1565 1.7172 0.3586 3.3476 0.6201 4.8533 0.2592 1.5101 0.5773 2.8938 0.9736 4.1193 0.3912 1.2309 0.8603 2.3013 1.4281 3.1871 0.5634 0.8892 1.2261 1.5917 2.0064 2.092 0.7799 0.5007 1.6787 0.7977 2.7055 0.8855 1.0331 0.0855 2.1959-0.0385 3.4791-0.3675 0.5963-0.1525 1.2187-0.3487 1.8636-0.5874 0.753-0.2775 1.5358-0.6117 2.3427-1.0007 1.5096-0.7222 3.1025-1.6323 4.7129-2.7088 1.6153-1.0739 3.2467-2.3134 4.8041-3.6895 1.5563-1.377 3.0369-2.8917 4.3425-4.508 1.3032-1.6209 2.4297-3.3448 3.2944-5.1309 0.8628-1.7926 1.4623-3.6483 1.7506-5.5229 0.144-0.9392 0.2098-1.8832 0.1978-2.8263-0.012-0.943-0.1017-1.8861-0.2687-2.8235-0.3344-1.8705-0.9795-3.7184-1.8809-5.5002-0.9031-1.7757-2.0636-3.4855-3.3921-5.0898-1.331-1.5995-2.8301-3.0935-4.3968-4.4484-1.5671-1.3545-3.2009-2.5687-4.8123-3.6159-1.6063-1.0499-3.1888-1.9306-4.6844-2.6221-0.8416-0.3924-1.6549-0.7232-2.4343-0.9906-0.5955-0.2052-1.1705-0.3728-1.7224-0.5019-1.2643-0.2966-2.406-0.3864-3.4191-0.2679-1.0074 0.1204-1.8863 0.4516-2.6484 0.984-0.763 0.5318-1.409 1.2658-1.9581 2.1836-0.554 0.9139-1.0105 2.0119-1.391 3.2667-0.3854 1.2498-0.6937 2.6562-0.9449 4.1853-0.2533 1.5249-0.4484 3.1724-0.5983 4.9025-0.1512 1.7279-0.2567 3.5388-0.325 5.3893-0.0681 1.8514-0.0991 3.7427-0.0944 5.6286" stroke="#b07"/><path d="m63.29 67.733c0 1.1878 0.0265 2.3778 0.0808 3.5413 0.0546 1.1627 0.1371 2.2987 0.2522 3.381 0.1141 1.0853 0.2606 2.1161 0.4479 3.068 0.1843 0.9575 0.4087 1.8348 0.6856 2.6114 0.2706 0.7832 0.5931 1.4638 0.9808 2.026 0.3822 0.5664 0.8297 1.0128 1.3544 1.329 0.5241 0.3166 1.1261 0.5022 1.812 0.5531 0.6938 0.0481 1.4727-0.0379 2.3305-0.2548 0.4004-0.1007 0.818-0.2292 1.2503-0.3846 0.5068-0.1805 1.0326-0.3967 1.5739-0.6473 1.0177-0.4643 2.0881-1.0449 3.1679-1.7285 1.0858-0.6804 2.1797-1.4624 3.222-2.3281 1.041-0.8669 2.0296-1.8185 2.9003-2.8324 0.8675-1.0195 1.6167-2.1027 2.1914-3.2238 0.5723-1.1294 0.9698-2.2978 1.1612-3.477 0.0954-0.592 0.1391-1.1868 0.1313-1.7808-0.0078-0.5939-0.0671-1.188-0.1775-1.7788-0.2213-1.1762-0.6487-2.3392-1.2463-3.4613-0.5997-1.1144-1.3711-2.1884-2.2552-3.1972-0.8873-1.0029-1.888-1.9411-2.9359-2.7937-1.0484-0.852-2.1435-1.6179-3.2264-2.2811-1.0767-0.6665-2.1398-1.228-3.1479-1.6723-0.5643-0.2526-1.1106-0.4664-1.635-0.6405-0.3994-0.1335-0.7853-0.2433-1.1561-0.3286-0.845-0.1956-1.6098-0.259-2.2901-0.189-0.6731 0.0724-1.2622 0.2805-1.7746 0.6181-0.5137 0.3369-0.9506 0.8038-1.3237 1.389-0.3793 0.5804-0.6942 1.2785-0.9584 2.077-0.2701 0.7923-0.4884 1.6841-0.6676 2.6537-0.1823 0.9643-0.3244 2.006-0.4344 3.0994-0.1113 1.0907-0.1902 2.2332-0.2414 3.3999-0.0511 1.1679-0.0748 2.3601-0.0718 3.5478" stroke="#7c0097"/><path d="m80.202 67.638c0-6.7623-10.777-10.428-10.745 0-7.7e-4 11.846 10.745 6.3775 10.745 0z" stroke="#001276"/></g></g></svg>
